<?xml version="1.0" encoding="UTF-8"?>
<!DOCTYPE svg PUBLIC "-//W3C//DTD SVG 1.1//EN" "http://www.w3.org/Graphics/SVG/1.1/DTD/svg11.dtd">
<svg xmlns="http://www.w3.org/2000/svg" version="1.1" width="500px" height="500px" style="shape-rendering:geometricPrecision; text-rendering:geometricPrecision; image-rendering:optimizeQuality; fill-rule:evenodd; clip-rule:evenodd" xmlns:xlink="http://www.w3.org/1999/xlink">
<g><path style="opacity:1" fill="#f1f1f1" d="M -0.5,-0.5 C 166.167,-0.5 332.833,-0.5 499.5,-0.5C 499.5,166.167 499.5,332.833 499.5,499.5C 332.833,499.5 166.167,499.5 -0.5,499.5C -0.5,332.833 -0.5,166.167 -0.5,-0.5 Z"/></g>
<g><path style="opacity:1" fill="#0b0b0b" d="M 235.5,136.5 C 279.937,133.469 314.104,150.469 338,187.5C 358.473,227.755 355.473,266.088 329,302.5C 299.048,335.814 262.214,346.98 218.5,336C 176.309,320.467 152.809,290.301 148,245.5C 147.008,196.632 168.841,162.465 213.5,143C 220.905,140.631 228.238,138.464 235.5,136.5 Z"/></g>
<g><path style="opacity:1" fill="#efefef" d="M 238.5,142.5 C 279.762,140.544 311.262,156.877 333,191.5C 351.629,227.93 349.296,262.93 326,296.5C 298.853,328.549 264.686,340.049 223.5,331C 182.243,316.739 159.076,287.906 154,244.5C 153.05,206.228 168.55,176.728 200.5,156C 212.477,149.177 225.144,144.677 238.5,142.5 Z"/></g>
<g><path style="opacity:1" fill="#0a0a0a" d="M 212.5,179.5 C 215.833,179.5 219.167,179.5 222.5,179.5C 222.964,205.885 222.464,232.218 221,258.5C 216.372,270.157 207.705,275.491 195,274.5C 190.233,274.851 185.733,274.018 181.5,272C 180.209,268.545 180.209,265.045 181.5,261.5C 190.605,266.991 199.605,266.824 208.5,261C 209.667,259.167 210.833,257.333 212,255.5C 212.5,230.169 212.667,204.836 212.5,179.5 Z"/></g>
<g><path style="opacity:1" fill="#070707" d="M 232.5,180.5 C 235.962,179.518 239.629,179.185 243.5,179.5C 253.43,204.698 263.93,229.698 275,254.5C 285.776,229.949 296.276,205.282 306.5,180.5C 310.122,179.341 313.789,179.175 317.5,180C 303.204,212.76 289.038,245.593 275,278.5C 261.057,245.627 246.891,212.96 232.5,180.5 Z"/></g>
<g><path style="opacity:1" fill="#333333" d="M 241.5,293.5 C 248.531,293.519 248.864,294.019 242.5,295C 240.926,296.826 240.093,298.993 240,301.5C 239.109,298.502 239.609,295.836 241.5,293.5 Z"/></g>
<g><path style="opacity:1" fill="#4a4a4a" d="M 229.5,297.5 C 230.873,297.343 232.207,297.51 233.5,298C 232.036,299.864 231.036,302.031 230.5,304.5C 229.526,302.257 229.192,299.924 229.5,297.5 Z"/></g>
<g><path style="opacity:1" fill="#8c8c8c" d="M 286.5,297.5 C 285.5,297.5 284.5,297.5 283.5,297.5C 283.5,299.833 283.5,302.167 283.5,304.5C 282.527,302.052 282.194,299.385 282.5,296.5C 284.099,296.232 285.432,296.566 286.5,297.5 Z"/></g>
<g><path style="opacity:1" fill="#292929" d="M 289.5,298.5 C 291.035,297.212 292.701,297.212 294.5,298.5C 293.113,298.807 291.446,298.807 289.5,298.5 Z"/></g>
<g><path style="opacity:1" fill="#7b7b7b" d="M 296.5,295.5 C 296.56,294.957 296.893,294.624 297.5,294.5C 298.833,297.833 298.833,301.167 297.5,304.5C 296.682,301.254 296.349,298.254 296.5,295.5 Z"/></g>
<g><path style="opacity:1" fill="#282828" d="M 305.5,303.5 C 301,305.163 299.5,303.497 301,298.5C 303.041,297.577 305.208,297.244 307.5,297.5C 307.663,299.857 307.497,302.19 307,304.5C 306.617,303.944 306.117,303.611 305.5,303.5 Z"/></g>
<g><path style="opacity:1" fill="#3f3f3f" d="M 221.5,298.5 C 223.198,295.876 225.031,295.876 227,298.5C 228.5,303.667 226.667,305.5 221.5,304C 220.193,302.057 220.193,300.223 221.5,298.5 Z"/></g>
<g><path style="opacity:1" fill="#e0e0e0" d="M 221.5,298.5 C 225.138,297.737 226.638,299.07 226,302.5C 222.331,304.009 220.831,302.676 221.5,298.5 Z"/></g>
<g><path style="opacity:1" fill="#e5e5e5" d="M 305.5,303.5 C 301.839,303.65 300.839,302.15 302.5,299C 306.293,298.513 307.293,300.013 305.5,303.5 Z"/></g>
<g><path style="opacity:1" fill="#363636" d="M 252.5,302.5 C 250.843,298.644 252.176,296.811 256.5,297C 258.396,298.808 258.896,300.975 258,303.5C 255.661,305.078 253.828,304.745 252.5,302.5 Z"/></g>
<g><path style="opacity:1" fill="#e5e5e5" d="M 252.5,302.5 C 252.35,298.839 253.85,297.839 257,299.5C 257.487,303.293 255.987,304.293 252.5,302.5 Z"/></g>
<g><path style="opacity:1" fill="#343434" d="M 189.5,298.5 C 189.383,296.516 190.05,294.85 191.5,293.5C 194.816,298.342 195.816,301.009 194.5,301.5C 192.5,301.5 190.5,301.5 188.5,301.5C 188.719,302.675 188.386,303.675 187.5,304.5C 186.935,302.253 187.601,300.253 189.5,298.5 Z"/></g>
<g><path style="opacity:1" fill="#c5c5c5" d="M 189.5,298.5 C 190.151,297.909 190.818,297.243 191.5,296.5C 192.262,297.628 192.929,298.795 193.5,300C 191.537,300.844 190.204,300.344 189.5,298.5 Z"/></g>
<g><path style="opacity:1" fill="#333333" d="M 205.5,298.5 C 209.018,295.618 211.018,296.618 211.5,301.5C 209.473,301.338 207.473,301.505 205.5,302C 207.193,303.347 208.86,303.847 210.5,303.5C 205.036,305.37 203.369,303.704 205.5,298.5 Z"/></g>
<g><path style="opacity:1" fill="#bcbcbc" d="M 205.5,298.5 C 207.429,298.231 209.095,298.731 210.5,300C 209.667,300.167 208.833,300.333 208,300.5C 206.624,300.316 205.791,299.649 205.5,298.5 Z"/></g>
<g><path style="opacity:1" fill="#3e3e3e" d="M 214.5,296.5 C 217.166,296.066 218.333,297.066 218,299.5C 216.951,298.483 215.784,298.316 214.5,299C 215.563,300.188 216.897,300.688 218.5,300.5C 218.5,301.833 218.5,303.167 218.5,304.5C 216.712,304.785 215.045,304.452 213.5,303.5C 214.687,303.446 216.02,303.113 217.5,302.5C 213.803,301.715 212.803,299.715 214.5,296.5 Z"/></g>
<g><path style="opacity:1" fill="#4a4a4a" d="M 263.5,296.5 C 266.013,296.974 268.513,297.307 271,297.5C 271.667,299.833 271.667,302.167 271,304.5C 270.505,302.527 270.338,300.527 270.5,298.5C 269.5,298.5 268.5,298.5 267.5,298.5C 266.833,306.5 266.167,306.5 265.5,298.5C 264.5,298.5 263.5,298.5 262.5,298.5C 262.799,300.604 262.466,302.604 261.5,304.5C 260.526,302.257 260.192,299.924 260.5,297.5C 261.791,297.737 262.791,297.404 263.5,296.5 Z"/></g>
<g><path style="opacity:1" fill="#363636" d="M 279.5,298.5 C 280.404,299.209 280.737,300.209 280.5,301.5C 278.265,301.205 276.265,301.539 274.5,302.5C 272.843,298.644 274.176,296.811 278.5,297C 279.056,297.383 279.389,297.883 279.5,298.5 Z"/></g>
<g><path style="opacity:1" fill="#bdbdbd" d="M 279.5,298.5 C 279.209,299.649 278.376,300.316 277,300.5C 276.167,300.333 275.333,300.167 274.5,300C 275.905,298.731 277.571,298.231 279.5,298.5 Z"/></g>
<g><path style="opacity:1" fill="#3c3c3c" d="M 286.5,297.5 C 285.105,299.693 284.105,302.026 283.5,304.5C 283.5,302.167 283.5,299.833 283.5,297.5C 284.5,297.5 285.5,297.5 286.5,297.5 Z"/></g>
<g><path style="opacity:1" fill="#303030" d="M 197.5,297.5 C 198.239,297.369 198.906,297.536 199.5,298C 198.167,298.667 198.167,299.333 199.5,300C 200.448,300.483 201.448,300.649 202.5,300.5C 202.5,301.833 202.5,303.167 202.5,304.5C 200.712,304.785 199.045,304.452 197.5,303.5C 198.687,303.446 200.02,303.113 201.5,302.5C 198.658,301.996 197.325,300.329 197.5,297.5 Z"/></g>
<g><path style="opacity:1" fill="#343434" d="M 247.5,301.5 C 249.842,301.775 249.842,302.608 247.5,304C 245.833,304.667 244.167,304.667 242.5,304C 244.653,303.901 246.319,303.067 247.5,301.5 Z"/></g>
<g><path style="opacity:1" fill="#323232" d="M 274.5,302.5 C 276.46,303.448 278.46,303.614 280.5,303C 278.121,305.142 276.121,304.976 274.5,302.5 Z"/></g>
<g><path style="opacity:1" fill="#3d3d3d" d="M 289.5,298.5 C 288.737,302.409 290.07,303.742 293.5,302.5C 294.696,302.846 294.696,303.346 293.5,304C 289.494,304.987 287.661,303.487 288,299.5C 288.383,298.944 288.883,298.611 289.5,298.5 Z"/></g>
</svg>
